/* XPM */
static char * mozicon50_xpm[] = {
"50 50 256 2",
"  	c None",
". 	c #490081",
"+ 	c #48047A",
"@ 	c #440881",
"# 	c #480789",
"$ 	c #4F0686",
"% 	c #4F0895",
"& 	c #460E92",
"* 	c #4C0C8D",
"= 	c #570A92",
"- 	c #470EA9",
"; 	c #43149A",
"> 	c #4B0CB2",
", 	c #4A1295",
"' 	c #431794",
") 	c #4D119E",
"! 	c #4B12AC",
"~ 	c #55119A",
"{ 	c #48189E",
"] 	c #471B98",
"^ 	c #560FB0",
"/ 	c #4F12B6",
"( 	c #4E15AF",
"_ 	c #5217A2",
": 	c #4B1BA1",
"< 	c #4F17B0",
"[ 	c #482094",
"} 	c #5913B3",
"| 	c #5018B1",
"1 	c #5219B2",
"2 	c #4C209D",
"3 	c #4B2297",
"4 	c #5715C2",
"5 	c #531AB3",
"6 	c #5B16B5",
"7 	c #5C1AA1",
"8 	c #5619BC",
"9 	c #521EAD",
"0 	c #541CB4",
"a 	c #4F23A0",
"b 	c #5121A7",
"c 	c #561DB6",
"d 	c #591EA9",
"e 	c #6117C0",
"f 	c #50279B",
"g 	c #591DBF",
"h 	c #5C1BC7",
"i 	c #5920B9",
"j 	c #5427A4",
"k 	c #53299E",
"l 	c #5E23AE",
"m 	c #631EBC",
"n 	c #5D20C2",
"o 	c #5827AD",
"p 	c #552BA0",
"q 	c #5B28A1",
"r 	c #5C24BC",
"s 	c #5B26B5",
"t 	c #6523AA",
"u 	c #5A2CAA",
"v 	c #5F26BE",
"w 	c #6525B9",
"x 	c #6027C0",
"y 	c #5E2CB3",
"z 	c #6427C9",
"A 	c #662AB5",
"B 	c #6B29B0",
"C 	c #632AC2",
"D 	c #652DAF",
"E 	c #5F33AA",
"F 	c #642EBE",
"G 	c #5F36A5",
"H 	c #662DC5",
"I 	c #6233B2",
"J 	c #6532B9",
"K 	c #6A2CCE",
"L 	c #692FC8",
"M 	c #6535B4",
"N 	c #6B32B5",
"O 	c #7032B0",
"P 	c #6F32BE",
"Q 	c #6936BD",
"R 	c #6D33CC",
"S 	c #6C35C5",
"T 	c #653FA6",
"U 	c #7332C6",
"V 	c #683EAE",
"W 	c #6C39C1",
"X 	c #6342AF",
"Y 	c #7036CF",
"Z 	c #6E3DBD",
"` 	c #713ACA",
" .	c #703CC4",
"..	c #773AC6",
"+.	c #753AD4",
"@.	c #6B43C0",
"#.	c #7A39CE",
"$.	c #793BC8",
"%.	c #6E47B0",
"&.	c #7440C9",
"*.	c #763ECF",
"=.	c #6F44C9",
"-.	c #793ED8",
";.	c #7B41C5",
">.	c #7446BE",
",.	c #724AB3",
"'.	c #7645C6",
").	c #7F41CE",
"!.	c #7B43D4",
"~.	c #7A45CE",
"{.	c #724CC2",
"].	c #7E42DC",
"^.	c #7A48C9",
"/.	c #794AC3",
"(.	c #7D47D1",
"_.	c #7C4ACB",
":.	c #794EBF",
"<.	c #784CD2",
"[.	c #8145DF",
"}.	c #7C4DC7",
"|.	c #7354BB",
"1.	c #7A52BC",
"2.	c #7F4DCE",
"3.	c #7852C9",
"4.	c #824CD7",
"5.	c #8849D7",
"6.	c #7D53D2",
"7.	c #8350D2",
"8.	c #894DD2",
"9.	c #8353CE",
"0.	c #8057C1",
"a.	c #8552D5",
"b.	c #8256C8",
"c.	c #825CBF",
"d.	c #8855D8",
"e.	c #7F5EC7",
"f.	c #8858D2",
"g.	c #875ACE",
"h.	c #855ADA",
"i.	c #9057D5",
"j.	c #865BDC",
"k.	c #8D59DD",
"l.	c #8C5BD7",
"m.	c #8861C6",
"n.	c #8A60CC",
"o.	c #8C5FD3",
"p.	c #8E5DD9",
"q.	c #8F5EDA",
"r.	c #8A61DA",
"s.	c #8A65D6",
"t.	c #9261DD",
"u.	c #8D64DD",
"v.	c #9065D2",
"w.	c #9264D9",
"x.	c #9563E0",
"y.	c #9169CE",
"z.	c #9567DB",
"A.	c #9B64DC",
"B.	c #956AD7",
"C.	c #926ECB",
"D.	c #9170C6",
"E.	c #9967E4",
"F.	c #946DD2",
"G.	c #9869DE",
"H.	c #916ED8",
"I.	c #9A6BE0",
"J.	c #996EDB",
"K.	c #9870D6",
"L.	c #966FE2",
"M.	c #9B6DE2",
"N.	c #9773D1",
"O.	c #9E6FE5",
"P.	c #9877CE",
"Q.	c #9E72E0",
"R.	c #A470E0",
"S.	c #9B74E7",
"T.	c #A074E3",
"U.	c #977BD7",
"V.	c #9E79D8",
"W.	c #9B7BDF",
"X.	c #9E7CD4",
"Y.	c #A279E0",
"Z.	c #A477E6",
"`.	c #9D7FCF",
" +	c #9A80D6",
".+	c #A17FD7",
"++	c #A37DDD",
"@+	c #9D83D9",
"#+	c #AB7AE4",
"$+	c #A77EE6",
"%+	c #A583DB",
"&+	c #AD83DE",
"*+	c #AA84E4",
"=+	c #A685EA",
"-+	c #A58AD3",
";+	c #A789DA",
">+	c #AB89E1",
",+	c #AD87E8",
"'+	c #AB8CDD",
")+	c #B18ADE",
"!+	c #AA8FD9",
"~+	c #AB90DA",
"{+	c #AD8EE0",
"]+	c #AB8DEB",
"^+	c #B18FE8",
"/+	c #AF94DE",
"(+	c #B394E6",
"_+	c #B693EC",
":+	c #B199DC",
"<+	c #B499E3",
"[+	c #B398F0",
"}+	c #B899DE",
"|+	c #B999EC",
"1+	c #B69EE1",
"2+	c #B89CE7",
"3+	c #BE9AE7",
"4+	c #BCA0DE",
"5+	c #BAA2E5",
"6+	c #C0A0E5",
"7+	c #BDA1EC",
"8+	c #BEA6E9",
"9+	c #C4A4EA",
"0+	c #BEAAE6",
"a+	c #C1A8EC",
"b+	c #C4A8E6",
"c+	c #C2AEEA",
"d+	c #C4ACF0",
"e+	c #C7AEF3",
"f+	c #C6B1EE",
"g+	c #CDB0EF",
"h+	c #CBB3EA",
"i+	c #C8B7EC",
"j+	c #CCB8E8",
"k+	c #D0B8EF",
"l+	c #CCBBF0",
"m+	c #D0BBEB",
"n+	c #CDC0EE",
"o+	c #D3C3EB",
"p+	c #D6C2F2",
"q+	c #D8C8F0",
"r+	c #D4CBF2",
"s+	c #DBCBF3",
"t+	c #DCCFF0",
"u+	c #E0D7F1",
"v+	c #E3D7F8",
"w+	c #EADAF6",
"x+	c #E8E0FA",
"y+	c #ECE0F4",
"z+	c #EEE2F6",
"A+	c #EBE8FA",
"B+	c #F5EEFA",
"C+	c #F1F1FC",
"D+	c #F8F5FA",
"E+	c #FEFBFF",
"F+	c #F9FEFF",
"G+	c #FEFFFC",
"                                                                                                    ",
"                                            B O ).5.;.N B                                           ",
"                                    P f.S.=+_+|+2+(+3+[+^+$+M.8.A                                   ",
"                                8.Z.(+6+j+o+i+j+k+l+i+l+h+f+a+1+^+M.).                              ",
"                            8.W.2+c+i+k+s+v+f+e+g+e+g+f+k+l+l+m+h+0+(+S...                          ",
"                        P L.<+b+i+k+g+|+9+k+Z.Y.Z.$+Z.Z.$+,+_+7+g+j+i+4+{+k.t                       ",
"                      ~.*+1+h+h+6+,+#+O._+f+O.Z.Q.Z.Y.Z.Z.Z.Z.Q.Z.^+a+k+h+<+Q.P                     ",
"                    4.;+0+h+7+$+O.S.L.Q.^+g+O.Q.Z.Q.S.Z.Q.Q.Q.S.Q.R.R.,+8+h+1+++..                  ",
"                  2.;+4+a+*+O.L.R.Q.O.O.^+f+I.O.S.R.L.Q.O.O.R.J.J.L.L.z.J.(+d+0+V...                ",
"                ~.)+b+2+Q.G.J.I.L.R.L.G.]+g+E.L.R.O.R.O.R.L.J.M.I.R.G.I.z.w.V.6+4+W.P               ",
"              A U.4+(+R.w.z.G.z.z.I.I.A.,+d+A.I.M.M.G.L.R.z.I.G.z.B.B.G.z.z.u.H.<+:+B.l             ",
"            d s.:+'+z.u.z.z.z.z.G.G.G.z.>+g+x.G.I.G.G.z.z.z.G.G.G.u.A.z.z.z.o.A.B./+!+9.            ",
"            ;.~+'+o.A.o.t.z.A.u.A.A.u.x.*+d+t.z.z.z.x.u.G.z.z.z.A.u.t.r.q.t.r.o.o.B.~+X.P           ",
"          l N.~+u.p.h.d.p.d.p.z.u.u.A.k.W.a+q.u.u.u.z.A.x.t.t.t.o.A.o.t.r.q.p.p.f.i.K.!+o.          ",
"          ^.-+K.7.f.Y.%+>+>+L.i.t.q.t.#+6+9+i.x.A.t.q.t.t.r.q.t.r.q.o.o.o.f.f.p.f.i.f.U.`.P         ",
"        7 C.P.d.f.f.t+E+G+E+w+p.f.q.d.n+F+a+d.q.p.p.q.p.p.p.q.p.f.p.d.d.d.f.f.f.f.}.9.f.`.3.        ",
"        J P.o.6.7.2.t+E+G+G+F+9+7.f.8.p+F+7+4.d.p.p.h.p.i.h.d.k.7.i.f.f.i.i.2._.6.7.}.2.y.C.l       ",
"        }.D._.9.7.2.s+G+F+F+G+D+J.7.a.p+E+c+B.t.d.h.i.d.h.A.H.o.J.o.d.d.2.6.o.B.f.}.7.2.}.D.N       ",
"      a 0.0.;.6.2.(.r+E+E+E+G+G+t+4.*.m+G+9+C+a+K ` ` U R 6+D+z.C+h+~.6.2.~.'+E+z.^._._.^.c.}.      ",
"      t c._._.^._.^.t+G+G+G+G+G+F+>+h f+E+%+h+B+` Y Y Y R x+l+R E+4+R )._.~.>+G+v.&.^.^.~.1.0.~     ",
"      N c.=.;.^.~...q+G+G+G+G+G+G+D+*.f+E+&+r.E+q.K U K o.G+B.R D+4+n H H S %+G+n. .^.Z &.@.c.7     ",
"      I %. .'.=. .&.r+G+G+F+B+G+G+E+h+h+G+>+L C+b+m R n 6+B+` ` D+8+C H U g K.F+o... . .=.Z ,.l     ",
"      I V  .P  .s.S n+G+G+E+%+x+G+G+D+B+G+)+e c+A+S H R A+0+n &.C+5+n C C n K.E+@.9.^.A W M %.A     ",
"      y G S v.}+;+w m+G+E+F+s.B.G+E+G+F+G+{+g o.G+w.e o.G+o.m *.D+5+m H w m N.G+~.n.1+U.Q F G D     ",
"      o T i+!+S g r n+G+G+G+K.g n+G+G+E+G+)+n H z+8+e 5+z+H v ` D+1+i C F 8 F.G+'./ w y.n+c.k l     ",
"      : G )+~+m.s g o+G+G+G+C.e &.B+G+G+G+;+m n :+A+F B+<+n C S B+8+g v r 6 U.G+Z 0 /.@+!+{.f d     ",
"      : f | F N.!+v m+G+G+E+C.6 8 .+G+G+F+;+m n 9.C+'+D+}.m v v t+u+r 8 c / i+A+v F.;+Z ! 9 f 7     ",
"      _ [ 0 0 1 w 0 o+G+G+F+H.i r n o+G+G+>+g w m t+E+r+m r v g V.G+i+0.g.4+G+}+1 s ! 1 0 9 f ,     ",
"      , f 9 0 0 0 | o+G+G+G+H.0 w g ^.C+G+;+c v 8 .+D+V.8 w w r 8 !+C+F+E+E+1+0 0 0 9 1 1 b a       ",
"      * ] o 0 1 w 0 '.3.b.b.J r r r 0 '.X.@+8 r w s Z F r v 0 r r } P 3.b.Q ! 0 9 0 1 9 1 [ 7       ",
"        ] q 1 1 1 9 0 1 ^ ^ 0 9 0 r r / /.@+0 r r r c 0 r s 0 w 9 s } < 1 0 9 1 9 ! ! ) r [ :       ",
"        _ [ s ! 9 1 1 | 9 9 0 0 s r 9 1 /.)+/ 0 0 r 0 w 0 0 r 9 0 0 9 0 9 1 1 1 ! 9 1 | o f =       ",
"        * ' u < ! 9 ! 0 c 0 0 1 9 0 0 ^ {.`.1 r 0 s 9 0 0 9 0 0 0 0 1 1 9 ! 9 1 ! 9 ! c 3 a         ",
"          : [ r 9 ! 9 1 ! 9 1 1 1 0 0 ! /..+( 9 9 | 0 9 0 0 0 9 1 1 9 ! ! 1 ! ! 1 ! ! F [ _         ",
"          * ] y 8 ! 9 9 ( 9 9 ! 1 9 0 ! {. +> 0 0 0 0 9 1 1 1 9 9 - 9 1 9 ! 9 ! 1 9 v k ,           ",
"            { [ S 9 - ! ! ! ! 1 9 ! 9 ! >.`.! ! 9 1 1 < 9 9 9 ( ! 1 ! ! ! 9 ! 9 ! 0 Q 3 ~           ",
"              { j Y ! 9 1 1 9 ! 1 ! ! ! >.`.! ! ! ! ! ! ( ! ! 1 9 1 9 1 ! 1 ! ) c U [ ,             ",
"              # 3 u R ! ! ! ! ! ! 1 9 - >.P.- 1 9 9 9 1 ! ! 9 ! ! ! ! ! 1 9 ! c #.f {               ",
"                % 3 I Y 9 ! 9 9 ! ! 9 - >.X.- ! ! ! 9 9 1 ! 9 ! 9 9 9 ! ! 9 0 #.p ] $               ",
"                  & ' I +.s ! ! 9 ! ! - {.`.- ! 1 1 ( ! < 9 ( 9 < ! - 9 ! v -.p { *                 ",
"                    % ' u ].H 1 9 ! ! ! >.P.! ! ! ! 9 ! ! ! ! ! 1 ! ! 0 +.!.f ' #                   ",
"                      & ; [ ` ].L 0 ) - >.`.- 9 9 9 ( 9 1 9 ! ! ! s R [.J [ ; $                     ",
"                        + , ' j ).[.+.r >.C.- ! ! ! ! ! ! 9 r H +.5. .f ' %                         ",
"                            # , ' j N !.[.[.+.Y R R R Y -.[.!.~.J 2 ' & @                           ",
"                                # ; & ] f u N  .&.).&. .J u a ] & & .                               ",
"                                    @ @ & ; ' , ' ' ' & & ; # @                                     ",
"                                              + @ + @                                               ",
"                                                                                                    ",
"                                                                                                    ",
"                                                                                                    "};
