/* XPM */
static char * mozicon16_xpm[] = {
"16 16 177 2",
"  	c None",
". 	c #956AC8",
"+ 	c #A984DB",
"@ 	c #AB87DF",
"# 	c #9B71CE",
"$ 	c #7942AD",
"% 	c #A681DA",
"& 	c #C1A4F1",
"* 	c #D5C0F5",
"= 	c #BA98EC",
"- 	c #B591EA",
"; 	c #BB9AEE",
"> 	c #C2A5F1",
", 	c #B190E3",
"' 	c #7037A6",
") 	c #B090E5",
"! 	c #AE89E8",
"~ 	c #9D6FE1",
"{ 	c #BD9FEC",
"] 	c #A175E3",
"^ 	c #9C6EE2",
"/ 	c #9C6DE1",
"( 	c #9B6EE0",
"_ 	c #A77FE4",
": 	c #B697EA",
"< 	c #7842AF",
"[ 	c #9E79D9",
"} 	c #976ADE",
"| 	c #8F5DDB",
"1 	c #9566DD",
"2 	c #B999E9",
"3 	c #9D70E1",
"4 	c #9869DF",
"5 	c #9668DD",
"6 	c #9263DB",
"7 	c #9568DB",
"8 	c #A684E1",
"9 	c #7644B2",
"0 	c #976EDC",
"a 	c #B798E6",
"b 	c #AB87E3",
"c 	c #8E5CD9",
"d 	c #C7ADED",
"e 	c #9363DC",
"f 	c #9362DC",
"g 	c #8F5DDA",
"h 	c #8C5AD8",
"i 	c #8E5ED8",
"j 	c #8756D3",
"k 	c #8C5FD6",
"l 	c #885CC6",
"m 	c #7F52C6",
"n 	c #8758D3",
"o 	c #F6F2FB",
"p 	c #F9F6FD",
"q 	c #9A6FDC",
"r 	c #DFD1F5",
"s 	c #9D73DE",
"t 	c #7D46D3",
"u 	c #996DDC",
"v 	c #A37CDF",
"w 	c #8654D3",
"x 	c #966CD8",
"y 	c #8658D1",
"z 	c #8458CD",
"A 	c #7344C4",
"B 	c #7F4DCD",
"C 	c #ECE5F8",
"D 	c #FFFFFF",
"E 	c #DACAF2",
"F 	c #D5C4F0",
"G 	c #E1D5F4",
"H 	c #6F34CB",
"I 	c #DFD1F4",
"J 	c #DBCDF1",
"K 	c #7039C9",
"L 	c #C9B4EA",
"M 	c #8D63D1",
"N 	c #7140C5",
"O 	c #5C2398",
"P 	c #8158C8",
"Q 	c #8457CE",
"R 	c #ECE5F7",
"S 	c #CAB5EA",
"T 	c #F9F7FD",
"U 	c #E1D6F4",
"V 	c #DFD1F3",
"W 	c #B193E1",
"X 	c #D5C5EF",
"Y 	c #D2C1ED",
"Z 	c #6125C0",
"` 	c #BDA5E4",
" .	c #9068D0",
"..	c #8259CA",
"+.	c #571F98",
"@.	c #6D41BB",
"#.	c #7747C6",
"$.	c #F8F6FD",
"%.	c #A685DB",
"&.	c #A888DB",
"*.	c #ECE4F7",
"=.	c #7642C8",
"-.	c #CFBDEC",
";.	c #703CC5",
">.	c #D1C1EC",
",.	c #8B62CF",
"'.	c #CAB8E9",
").	c #7A4CC5",
"!.	c #6E41BE",
"~.	c #4E148E",
"{.	c #4D19A6",
"].	c #571FB5",
"^.	c #9774D1",
"/.	c #794BC5",
"(.	c #5D24BA",
"_.	c #B195DE",
":.	c #642CBD",
"<.	c #7F53C9",
"[.	c #5B22B9",
"}.	c #6834BE",
"|.	c #C9B7E7",
"1.	c #794DC3",
"2.	c #4E15AF",
"3.	c #4E19AB",
"4.	c #4D1998",
"5.	c #521CB1",
"6.	c #480EAB",
"7.	c #5017B0",
"8.	c #5219B2",
"9.	c #8B64CC",
"0.	c #5E28B8",
"a.	c #5117B2",
"b.	c #561EB4",
"c.	c #5219B1",
"d.	c #4A10AC",
"e.	c #4A11AB",
"f.	c #5018AF",
"g.	c #521EA4",
"h.	c #5724AF",
"i.	c #4F18AF",
"j.	c #4D16AB",
"k.	c #4C14AC",
"l.	c #8A65C9",
"m.	c #5722B1",
"n.	c #4F17AD",
"o.	c #4F18AD",
"p.	c #4E17AC",
"q.	c #4D16AD",
"r.	c #5824B5",
"s.	c #4D118A",
"t.	c #4C128A",
"u.	c #5C28B7",
"v.	c #521BB2",
"w.	c #4911A9",
"x.	c #8965C7",
"y.	c #5421AE",
"z.	c #4C15AB",
"A.	c #4C15AA",
"B.	c #5C27BA",
"C.	c #521A99",
"D.	c #4B0F88",
"E.	c #5D28B3",
"F.	c #5C25BC",
"G.	c #8E69CF",
"H.	c #5924B5",
"I.	c #511AB1",
"J.	c #551EB5",
"K.	c #5D26BC",
"L.	c #602BB9",
"M.	c #501793",
"N.	c #501692",
"O.	c #5D25AB",
"P.	c #602AB4",
"Q.	c #6029B4",
"R.	c #5C26AD",
"S.	c #541A99",
"T.	c #47077B",
"            . + @ # $           ",
"        % & * = - ; > , '       ",
"      ) ! ~ { ] ^ / ( _ : <     ",
"    [ } | 1 2 3 4 4 5 6 7 8     ",
"  9 0 a b c d e f g h i j k l   ",
"  m n o p q r s t u v w x y z   ",
"  A B C D E F G H I J K L M N O ",
"  P Q R S T U V W X Y Z `  ...+.",
"  @.#.$.%.&.*.=.-.;.>.,.'.).!.~.",
"  {.].^./.(._.:.<.[.}.|.1.2.3.  ",
"  4.5.6.7.8.9.0.a.b.c.d.e.f.g.  ",
"    h.i.j.k.l.m.n.o.p.j.q.r.s.  ",
"    t.u.v.w.x.y.z.j.A.f.B.C.    ",
"      D.E.F.G.H.I.J.K.L.M.      ",
"          N.O.P.Q.R.S.T.        ",
"                                "};
